<?xml version="1.0" standalone="no"?>
<!DOCTYPE svg PUBLIC "-//W3C//DTD SVG 20010904//EN"
 "http://www.w3.org/TR/2001/REC-SVG-20010904/DTD/svg10.dtd">
<svg version="1.0" xmlns="http://www.w3.org/2000/svg"
 width="300.000000pt" height="300.000000pt" viewBox="0 0 300.000000 300.000000"
 preserveAspectRatio="xMidYMid meet">
<metadata>
Created by potrace 1.14, written by Peter Selinger 2001-2017
</metadata>
<g transform="translate(0.000000,300.000000) scale(0.100000,-0.100000)"
fill="#000000" stroke="none">
<path d="M1384 2989 c-6 -10 8 -16 46 -21 27 -3 27 0 29 -145 1 -59 4 -73 17
-73 13 0 15 15 12 110 -3 71 0 110 7 111 5 1 20 1 33 2 12 0 22 6 22 13 0 10
-20 13 -80 13 -44 0 -82 -5 -86 -10z"/>
<path d="M1593 2913 c4 -14 16 -77 20 -103 0 -3 4 -20 8 -39 9 -38 -4 -71 -26
-71 -8 0 -15 -5 -15 -11 0 -6 12 -9 27 -7 23 3 32 16 75 116 28 63 47 116 45
119 -12 11 -27 -11 -53 -79 l-29 -72 -7 45 c-15 84 -16 94 -17 107 -1 6 -8 12
-17 12 -10 0 -14 -6 -11 -17z"/>
<path d="M1137 2882 c-34 -37 -12 -79 44 -85 49 -5 61 -14 49 -36 -11 -22 -44
-33 -58 -19 -6 6 -16 7 -23 3 -8 -6 -3 -12 16 -22 22 -12 32 -12 56 -3 55 23
46 99 -11 101 -17 1 -36 2 -42 3 -18 1 -23 46 -6 47 24 3 53 6 63 8 6 1 3 6
-5 11 -24 16 -66 11 -83 -8z"/>
<path d="M1797 2893 c-4 -8 -23 -86 -32 -132 -2 -13 -10 -39 -16 -58 -14 -45
4 -71 21 -29 5 15 10 33 10 40 0 23 13 26 26 7 9 -12 23 -17 39 -15 29 3 67
32 60 45 -3 4 -1 10 5 14 15 10 12 78 -6 103 -16 23 -58 30 -69 12 -3 -5 2
-10 12 -10 29 0 43 -20 43 -60 0 -66 -47 -102 -83 -62 -14 16 -14 21 1 67 10
28 17 56 17 64 0 16 -21 26 -28 14z"/>
<path d="M972 2834 c-47 -33 -17 -88 49 -89 40 0 44 -2 44 -25 0 -22 -4 -25
-37 -24 -24 1 -38 -3 -38 -11 0 -21 42 -25 77 -8 26 12 33 21 33 43 0 37 -21
53 -73 54 -36 1 -42 4 -45 24 -3 22 8 27 51 24 9 -1 17 4 17 11 0 19 -52 20
-78 1z"/>
<path d="M2020 2822 c-18 -6 -54 -42 -43 -42 4 0 2 -4 -5 -8 -7 -5 -14 -25
-16 -46 -3 -28 2 -43 19 -62 52 -56 135 -2 135 90 0 31 -19 65 -38 67 -4 0
-14 2 -22 3 -8 2 -22 1 -30 -2z m54 -38 c19 -19 20 -15 0 -65 -20 -47 -50 -64
-76 -41 -23 20 -23 34 2 82 22 43 47 51 74 24z"/>
<path d="M802 2753 c-25 -21 -28 -37 -18 -80 16 -70 88 -104 134 -64 22 19 30
61 12 61 -5 0 -10 -9 -10 -19 0 -27 -54 -45 -75 -25 -23 23 -19 31 25 51 49
22 54 35 29 67 -24 31 -67 34 -97 9z m68 -18 c15 -18 7 -31 -30 -50 -25 -13
-29 -13 -34 1 -9 23 -7 31 10 48 19 20 38 20 54 1z"/>
<path d="M620 2729 c0 -20 135 -198 150 -199 8 0 22 5 30 10 13 8 11 11 -7 16
-20 6 -42 31 -127 147 -27 36 -46 48 -46 26z"/>
<path d="M2186 2719 c-17 -13 -26 -30 -26 -49 0 -20 -6 -31 -20 -35 -11 -3
-20 -15 -20 -26 0 -10 -6 -19 -14 -19 -7 0 -19 -7 -26 -15 -17 -21 8 -57 55
-79 44 -21 70 -14 84 24 9 27 7 32 -17 47 -39 26 -54 42 -48 52 4 6 17 5 34
-1 57 -22 105 15 93 71 -2 12 0 12 11 4 7 -7 19 -8 26 -4 18 11 -10 33 -31 25
-9 -3 -26 1 -39 10 -29 20 -30 20 -62 -5z m62 -18 c15 -9 13 -40 -5 -58 -15
-16 -25 -16 -47 0 -15 11 -16 17 -5 40 12 27 33 34 57 18z m-82 -142 c39 -24
39 -23 19 -43 -14 -13 -19 -13 -50 5 -39 23 -37 21 -29 43 8 21 20 20 60 -5z"/>
<path d="M2348 2612 c-53 -58 -89 -112 -82 -123 4 -7 15 -1 31 17 75 88 92
100 108 74 9 -15 25 -12 25 4 0 16 -27 29 -43 19 -6 -4 -8 0 -4 10 11 28 -9
28 -35 -1z"/>
<path d="M560 2582 c-11 -9 -22 -27 -23 -40 -1 -15 -7 -22 -18 -20 -22 4 -49
-20 -49 -43 0 -11 -3 -18 -7 -18 -36 6 -30 -9 27 -66 35 -36 68 -65 72 -65 19
0 5 26 -37 71 -50 54 -54 68 -25 87 19 11 26 7 76 -39 35 -34 58 -49 64 -43 6
6 -8 27 -40 59 -28 27 -50 54 -50 61 0 6 9 19 19 29 19 17 22 15 74 -34 56
-53 67 -59 67 -38 0 15 -75 90 -107 106 -17 8 -26 7 -43 -7z"/>
<path d="M2457 2524 c-4 -4 8 -14 26 -23 35 -17 41 -39 18 -58 -12 -9 -21 -6
-44 13 -16 13 -34 24 -41 24 -21 0 -56 -36 -56 -56 0 -23 33 -54 57 -54 9 0
13 -3 10 -6 -9 -10 13 -45 24 -39 5 4 7 10 4 15 -3 4 15 29 40 54 49 51 56 80
26 114 -18 21 -51 29 -64 16z m-2 -94 c18 -20 18 -21 -1 -34 -29 -21 -73 7
-60 39 8 21 40 18 61 -5z"/>
<path d="M2580 2369 c-48 -39 -55 -44 -80 -60 -53 -35 -85 -68 -74 -79 6 -6
19 -1 38 15 36 31 41 31 43 3 5 -58 78 -62 136 -6 33 32 38 41 33 65 -8 31
-34 56 -48 47 -5 -3 -2 -14 6 -23 24 -27 19 -47 -17 -75 -44 -34 -74 -33 -89
0 -11 23 -10 28 12 46 14 10 33 26 43 33 9 8 17 12 17 9 0 -4 7 -1 15 6 18 15
20 40 3 40 -7 -1 -24 -10 -38 -21z"/>
<path d="M365 2358 c-43 -22 -64 -88 -29 -88 10 0 13 6 10 18 -9 28 26 57 52
43 20 -10 20 -11 2 -47 -23 -44 -14 -75 25 -89 23 -8 30 -6 47 15 10 13 17 32
15 42 -4 13 0 18 14 18 28 0 26 33 -2 35 -9 1 -29 11 -45 22 -53 37 -68 42
-89 31z m93 -70 c27 -27 2 -75 -32 -62 -18 7 -21 27 -6 55 12 22 21 24 38 7z"/>
<path d="M2760 2224 c-25 -14 -75 -41 -112 -60 -45 -23 -66 -38 -62 -48 4 -10
33 2 117 46 129 69 124 66 111 77 -5 6 -27 -1 -54 -15z"/>
<path d="M1355 2202 c-2 -2 -18 -6 -36 -9 -72 -11 -163 -75 -197 -138 -41 -78
-48 -222 -13 -300 35 -76 114 -141 201 -161 19 -4 38 -9 43 -10 4 -1 13 -2 21
-3 11 -1 13 -66 14 -373 0 -205 1 -383 1 -394 1 -19 7 -21 60 -21 46 1 60 4
63 16 2 9 3 298 2 642 l0 627 80 -1 81 -1 5 -641 5 -640 62 -2 63 -1 2 641 3
642 50 0 50 1 1 54 c1 30 -1 60 -3 66 -3 7 -92 10 -279 10 -152 -1 -277 -2
-279 -4z"/>
<path d="M235 2170 c-27 -52 -3 -99 61 -120 39 -13 63 -10 86 10 21 20 30 76
14 89 -18 15 -26 3 -20 -29 7 -35 -28 -65 -58 -49 -17 9 -17 12 8 60 14 28 23
54 20 57 -4 3 -26 7 -51 8 -41 2 -47 0 -60 -26z m78 -18 c-13 -35 -35 -61 -48
-56 -22 9 -25 44 -5 64 23 23 62 16 53 -8z"/>
<path d="M2744 2154 c9 -8 16 -19 16 -24 0 -15 -31 -40 -82 -66 -35 -18 -47
-29 -40 -36 13 -13 128 47 143 73 14 26 -6 69 -31 69 -20 0 -20 -1 -6 -16z"/>
<path d="M101 2014 c-12 -15 -21 -41 -21 -60 0 -27 6 -36 31 -50 40 -20 69
-12 94 26 29 45 51 55 80 36 21 -14 23 -20 14 -48 -5 -18 -9 -34 -9 -35 0 -2
-6 -3 -14 -3 -16 0 -29 -27 -17 -34 4 -3 20 5 35 17 38 31 47 94 17 121 -32
29 -80 25 -108 -10 -13 -16 -28 -35 -34 -41 -25 -31 -69 0 -61 43 3 15 13 29
23 31 22 6 26 33 5 33 -8 0 -24 -12 -35 -26z"/>
<path d="M2794 2023 c-54 -50 -133 -103 -152 -103 -11 0 -22 8 -25 18 -4 16
-5 15 -12 -2 -10 -22 16 -46 43 -41 9 2 63 4 120 4 81 1 102 4 102 15 0 12
-16 14 -82 11 -93 -4 -93 -7 1 58 23 16 41 35 41 43 0 19 -12 18 -36 -3z"/>
<path d="M119 1589 c-55 -20 -71 -112 -26 -156 67 -68 182 -6 163 88 -12 63
-71 92 -137 68z"/>
<path d="M2769 1568 c-47 -50 -36 -123 24 -151 49 -24 72 -21 108 11 26 23 32
36 32 71 0 57 -34 92 -93 97 -35 2 -46 -2 -71 -28z"/>
<path d="M291 1157 c-26 -13 -44 -60 -35 -89 12 -40 -36 -74 -72 -50 -15 9
-20 41 -10 70 10 29 1 39 -19 22 -40 -33 4 -130 58 -130 45 0 70 31 69 83 -1
46 16 77 42 77 15 0 53 -39 47 -49 -22 -39 -19 -70 6 -50 22 19 16 77 -12 104
-27 28 -39 30 -74 12z"/>
<path d="M2695 1141 c-3 -5 20 -27 50 -48 63 -43 95 -67 79 -59 -6 3 -44 7
-84 8 -52 2 -75 -1 -77 -9 -3 -7 4 -13 14 -13 173 -5 203 -11 203 -41 0 -25
17 -24 25 2 4 11 5 22 3 23 -1 1 -46 34 -99 74 -100 75 -104 78 -114 63z"/>
<path d="M2619 949 c-6 -12 -9 -30 -6 -40 6 -24 5 -24 -45 2 -25 13 -44 17
-50 11 -9 -9 48 -45 169 -106 60 -30 63 -30 63 -13 0 6 -26 26 -58 42 -45 24
-58 36 -60 57 -5 41 27 45 94 9 53 -28 74 -31 74 -12 0 11 -125 71 -149 71
-11 0 -25 -9 -32 -21z"/>
<path d="M283 945 c-80 -34 -79 -145 1 -145 25 0 19 17 -9 24 -44 11 -34 85
13 86 6 0 12 -3 11 -7 -2 -16 14 -53 22 -53 5 0 9 -6 9 -14 0 -27 17 -26 46 2
37 33 39 76 5 103 -27 22 -54 23 -98 4z m89 -29 c14 -20 8 -45 -11 -56 -17 -9
-22 -5 -37 26 -14 29 -15 37 -4 44 15 9 41 2 52 -14z"/>
<path d="M450 770 c32 -30 32 -31 15 -50 -18 -20 -19 -20 -48 10 -16 16 -38
30 -48 30 -19 0 -59 -33 -59 -48 0 -16 32 -52 46 -52 8 0 14 -10 14 -25 0 -27
26 -36 32 -11 2 7 23 29 48 48 53 40 63 75 31 107 -12 12 -30 21 -42 21 -19 0
-18 -3 11 -30z m-42 -60 c15 -24 10 -36 -17 -43 -25 -6 -54 24 -45 47 9 23 47
20 62 -4z"/>
<path d="M2527 788 c-11 -8 -20 -26 -20 -40 -1 -16 -7 -24 -14 -21 -7 3 -13
-2 -13 -11 0 -9 4 -16 8 -16 5 0 20 -9 33 -21 43 -38 146 -109 158 -109 22 0
10 20 -24 42 -19 13 -35 27 -35 31 0 5 4 6 10 2 18 -11 51 33 45 62 -11 62
-105 113 -148 81z m88 -38 c14 0 34 -34 35 -57 0 -41 -32 -46 -84 -12 -48 32
-54 45 -33 71 18 23 40 27 58 12 8 -8 19 -14 24 -14z"/>
<path d="M503 620 c-69 -68 -76 -77 -64 -84 11 -7 131 104 131 122 0 22 -16
13 -67 -38z"/>
<path d="M2420 642 c-28 -9 -50 -35 -50 -59 0 -30 16 -30 24 1 8 33 43 44 61
20 11 -16 10 -21 -11 -41 -29 -27 -31 -56 -4 -83 31 -31 56 -25 79 18 7 12 10
26 7 30 -3 5 5 8 17 8 13 -1 22 5 22 14 0 8 -6 14 -13 12 -8 -1 -28 13 -45 31
-37 40 -66 56 -87 49z m74 -78 c23 -9 20 -51 -4 -64 -37 -20 -57 21 -27 58 11
14 10 14 31 6z"/>
<path d="M570 632 c0 -6 7 -12 15 -16 26 -10 16 -36 -36 -91 -32 -34 -46 -56
-39 -60 7 -4 27 9 48 31 59 62 68 67 91 54 32 -17 26 -36 -30 -95 -28 -30 -46
-56 -40 -60 13 -8 121 99 121 120 0 29 -20 55 -43 55 -17 0 -25 8 -32 33 -7
22 -17 33 -32 35 -13 2 -23 -1 -23 -6z"/>
<path d="M2304 526 c-4 -17 -11 -22 -25 -19 -10 3 -19 2 -19 -1 0 -4 25 -39
56 -77 37 -47 60 -67 66 -61 7 7 -4 28 -31 62 -45 56 -50 74 -25 88 9 5 14 14
10 21 -12 18 -25 13 -32 -13z"/>
<path d="M765 480 c-22 -33 -43 -60 -47 -60 -5 0 -8 -7 -8 -15 0 -8 -4 -15 -8
-15 -5 0 -15 -11 -22 -25 -11 -20 -11 -27 0 -40 17 -21 32 -19 28 4 -2 11 14
43 35 70 20 28 37 53 37 56 0 3 11 18 25 33 27 29 33 52 12 52 -6 0 -30 -27
-52 -60z"/>
<path d="M2183 473 c-3 -10 -19 -29 -34 -43 -21 -19 -26 -32 -22 -52 5 -24 36
-63 51 -63 4 0 5 -10 4 -21 -2 -12 4 -24 13 -28 9 -3 14 -10 10 -16 -10 -17
15 -50 38 -50 38 0 97 47 97 77 -1 49 -35 61 -91 32 -47 -24 -63 -7 -25 26 14
12 26 32 26 44 0 27 -29 73 -41 65 -5 -3 -9 -1 -9 5 0 5 5 13 10 16 12 7 4 25
-11 25 -5 0 -12 -8 -16 -17z m38 -73 c1 -6 2 -16 3 -22 1 -7 -7 -18 -19 -25
-16 -9 -23 -8 -37 4 -23 20 -23 49 -1 62 19 10 52 -2 54 -19z m91 -117 c4 -18
-45 -63 -68 -63 -16 0 -30 43 -17 47 6 2 19 10 29 18 26 20 52 19 56 -2z"/>
<path d="M815 384 c-27 -29 -41 -80 -30 -114 9 -28 63 -52 87 -39 28 15 21 31
-9 25 -16 -3 -34 -2 -42 3 -19 12 -22 58 -5 72 8 7 14 7 14 1 0 -5 15 -15 33
-23 17 -7 35 -18 39 -23 11 -16 28 6 34 43 8 46 -15 76 -60 79 -28 2 -42 -3
-61 -24z m90 -19 c7 -11 10 -28 6 -37 -6 -16 -9 -16 -45 5 -36 22 -37 25 -21
41 21 21 43 18 60 -9z"/>
<path d="M1976 339 c-21 -16 -25 -27 -21 -54 9 -73 57 -124 102 -108 50 18 65
60 42 120 -23 62 -75 80 -123 42z m74 -9 c5 0 14 -17 21 -37 12 -35 14 -46 10
-72 -2 -16 -39 -23 -60 -12 -18 10 -41 59 -41 87 0 20 31 46 47 40 8 -3 18 -6
23 -6z"/>
<path d="M1000 320 c-20 -17 -22 -25 -14 -48 5 -15 19 -31 32 -37 26 -11 30
-50 6 -59 -9 -3 -25 4 -40 19 -30 30 -34 31 -34 6 0 -10 11 -26 25 -35 72 -47
135 34 65 86 -16 12 -30 28 -30 35 0 22 28 26 56 8 28 -18 38 -16 28 8 -4 12
-51 37 -69 37 -1 0 -12 -9 -25 -20z"/>
<path d="M1394 311 c-11 -12 -1 -20 29 -23 l32 -3 1 -105 c0 -84 4 -106 15
-108 11 -2 15 7 16 35 0 21 1 70 2 109 l1 72 32 -2 c17 0 33 5 35 12 3 8 -7
12 -29 13 -18 0 -55 1 -81 2 -27 1 -51 0 -53 -2z"/>
<path d="M1811 283 c-11 -7 -26 -10 -35 -7 -21 8 -20 -2 12 -130 15 -60 33
-111 40 -114 14 -4 15 12 2 57 -9 32 -8 33 16 27 40 -10 74 17 74 59 0 90 -56
146 -109 108z m64 -36 c8 -12 16 -38 17 -57 3 -28 -2 -37 -24 -49 -35 -20 -46
-9 -63 56 -11 42 -10 49 4 60 25 19 49 15 66 -10z"/>
<path d="M1155 267 c-24 -34 -18 -56 21 -79 25 -15 34 -26 32 -42 -4 -28 -29
-31 -57 -7 -32 28 -48 15 -20 -15 29 -30 83 -33 99 -5 19 36 12 61 -25 82 -19
12 -35 27 -35 35 0 21 29 29 51 16 10 -7 23 -12 29 -12 18 0 11 19 -12 31 -38
20 -67 19 -83 -4z"/>
<path d="M1682 253 c3 -13 -14 -117 -23 -138 -6 -16 -8 -16 -8 -3 -1 9 -11 38
-23 65 -12 26 -22 52 -22 58 -1 12 -36 20 -36 8 0 -5 7 -19 16 -31 8 -12 12
-22 9 -22 -3 0 6 -21 21 -47 14 -27 26 -49 25 -51 -1 -1 2 -14 5 -28 5 -19 2
-29 -10 -36 -22 -12 -20 -27 4 -25 23 2 23 2 50 131 24 118 24 126 5 126 -8 0
-14 -3 -13 -7z"/>
</g>
</svg>
